<?xml version="1.0" encoding="utf-8"?>
<!-- Generator: Adobe Illustrator 28.0.0, SVG Export Plug-In . SVG Version: 6.00 Build 0)  -->
<svg version="1.1" id="Layer_1" xmlns="http://www.w3.org/2000/svg" xmlns:xlink="http://www.w3.org/1999/xlink" x="0px" y="0px"
	 viewBox="0 0 32 31.03" style="enable-background:new 0 0 32 31.03;" xml:space="preserve">
<style type="text/css">
	.st0{fill:url(#SVGID_1_);}
	.st1{fill:url(#SVGID_00000137118802338641695970000016358884568034276000_);}
</style>
<linearGradient id="SVGID_1_" gradientUnits="userSpaceOnUse" x1="3.4234" y1="6.2488" x2="27.4831" y2="20.1396">
	<stop  offset="0" style="stop-color:#7F0007"/>
	<stop  offset="1" style="stop-color:#551321"/>
</linearGradient>
<path class="st0" d="M5.12,21.51c-0.03-0.64-0.09-2.21-0.93-3.49c-1.24-1.9-2.98-1.36-3.81-2.94c-0.76-1.44-0.34-3.86,0.93-4.69
	C3.29,9.11,3.02,8,4.58,6.74C5.67,5.86,7.79,8.36,9.09,6.5c0.98-1.4,3.03-2.32,4.98-1.83c1.46,0.37,1.29,1.42,2.8,2.06
	c2.73,1.17,6.07-0.9,6.53-1.19c1.81-1.12,1.73-1.91,3.19-2.38c1.71-0.56,4.16-0.24,5.05,1.19c0.92,1.47-0.1,3.62-1.24,6.04
	c-1.83,3.87-3.51,4.4-3.66,7.07c-0.08,1.53,0.43,1.94,0.08,3.41c-0.37,1.51-1.18,2.22-2.57,3.89c-3.13,3.78-2.38,4.3-3.89,5.24
	c-2.25,1.41-5.59,1.31-7.85,0c-1.99-1.15-1.88-2.49-4.36-3.57c-1.59-0.69-2.6-0.57-3.11-1.51C4.56,24.04,5.2,23.42,5.12,21.51z"/>
<g>
	
		<linearGradient id="SVGID_00000003785683577971688870000002177223404951548047_" gradientUnits="userSpaceOnUse" x1="13.6285" y1="10.7417" x2="24.8414" y2="17.2155">
		<stop  offset="0" style="stop-color:#F0F0BE"/>
		<stop  offset="1" style="stop-color:#FFC674"/>
	</linearGradient>
	<path style="fill:url(#SVGID_00000003785683577971688870000002177223404951548047_);" d="M14.95,25.73l0.02-0.13
		c0.01-0.08,0.03-0.16,0.04-0.24c0.03-0.17,0.05-0.34,0.09-0.5c0.22-1,0.43-2,0.65-3c0.3-1.4,0.6-2.79,0.9-4.18
		c0.01-0.05,0.02-0.11,0.04-0.16c0.04-0.17,0.1-0.38,0.04-0.48c-0.14-0.28-0.39-0.58-0.58-0.62l-0.02,0
		c-0.22-0.03-0.59,0.31-0.74,0.46c-0.05,0.05-0.07,0.19-0.09,0.32c-0.01,0.07-0.02,0.14-0.03,0.2c-0.41,1.9-0.82,3.79-1.23,5.69
		l-0.51,2.34l-1.55-0.33l0.02-0.13c0.01-0.07,0.02-0.14,0.03-0.21c0.02-0.16,0.05-0.33,0.09-0.49l0.39-1.8
		c0.52-2.41,1.06-4.91,1.59-7.36c0.43-1.94,1.14-3.59,2.17-5.04c1.23-1.72,2.04-3.36,2.49-5.03c0.33-1.24,0.48-2.55,0.61-3.78
		c0.06-0.57,0.19-0.9,0.44-1.08c0.23-0.17,0.55-0.2,1.02-0.1l0.41,0.09c0.13,0.03,0.27,0.06,0.4,0.09c0.49,0.11,0.78,0.28,0.92,0.53
		c0.13,0.25,0.11,0.58-0.07,1.03c-1.2,2.98-1.48,6.12-0.86,9.36c0.35,1.79,0.31,3.61-0.1,5.56c-0.49,2.29-1,4.63-1.49,6.9
		c-0.21,0.97-0.66,3.05-0.66,3.05l-1.58-0.34l0.6-2.77c0.39-1.82,0.79-3.65,1.19-5.47c0.11-0.5,0.09-0.83-0.33-1.03
		c-0.06-0.03-0.12-0.05-0.19-0.07c-0.4-0.09-0.73,0.21-0.85,0.77c-0.35,1.61-0.71,3.24-1.05,4.82c-0.14,0.63-0.75,3.48-0.75,3.48
		L14.95,25.73L14.95,25.73z"/>
</g>
</svg>
