<?xml version="1.0" encoding="utf-8"?>
<!-- Generator: Adobe Illustrator 28.0.0, SVG Export Plug-In . SVG Version: 6.00 Build 0)  -->
<svg version="1.1" id="Layer_1" xmlns="http://www.w3.org/2000/svg" xmlns:xlink="http://www.w3.org/1999/xlink" x="0px" y="0px"
	 viewBox="0 0 56.88 191.88" style="enable-background:new 0 0 56.88 191.88;" xml:space="preserve">
<style type="text/css">
	.st0{fill:url(#SVGID_1_);}
	.st1{fill:#551321;}
</style>
<g>
	<linearGradient id="SVGID_1_" gradientUnits="userSpaceOnUse" x1="28.4398" y1="1" x2="28.4398" y2="190.8775">
		<stop  offset="0" style="stop-color:#551321"/>
		<stop  offset="0.1035" style="stop-color:#764142"/>
		<stop  offset="0.5" style="stop-color:#F0ECBC"/>
		<stop  offset="0.5679" style="stop-color:#CDBB99"/>
		<stop  offset="0.6473" style="stop-color:#A98875"/>
		<stop  offset="0.7257" style="stop-color:#8B5E57"/>
		<stop  offset="0.8015" style="stop-color:#733D3F"/>
		<stop  offset="0.874" style="stop-color:#63262F"/>
		<stop  offset="0.9417" style="stop-color:#581824"/>
		<stop  offset="1" style="stop-color:#551321"/>
	</linearGradient>
	<path class="st0" d="M23.18,190.88l-0.05-0.95c-0.03-0.6-0.07-1.19-0.11-1.77c-0.08-1.26-0.16-2.46-0.16-3.68
		c-0.01-7.39-0.01-14.77-0.01-22.16c0-10.29,0-20.57-0.02-30.86c0-0.39,0.01-0.8,0.03-1.21c0.04-1.27,0.1-2.84-0.42-3.47
		c-1.43-1.73-3.61-3.48-5.02-3.48l-0.12,0c-1.57,0.13-3.65,3.09-4.54,4.35c-0.3,0.43-0.22,1.48-0.14,2.4
		c0.04,0.49,0.08,0.98,0.08,1.43c-0.01,13.99-0.01,27.98-0.01,41.98v17.25H1.29l-0.04-0.96c-0.02-0.49-0.05-1-0.08-1.51
		c-0.07-1.17-0.14-2.38-0.14-3.62l-0.01-13.24C1,153.6,0.98,135.2,1.03,117.1c0.04-14.35,2.53-27.06,7.61-38.85
		c6.03-13.99,9.25-26.81,9.85-39.2c0.45-9.24-0.48-18.68-1.47-27.56c-0.46-4.13-0.03-6.6,1.44-8.25c1.36-1.52,3.6-2.24,7.05-2.25
		l3.06,0c0.98,0,1.96,0,2.95,0c3.63,0.01,5.94,0.75,7.26,2.34c1.31,1.56,1.65,3.89,1.06,7.34c-3.89,22.79-1.11,45.41,8.25,67.24
		c5.18,12.07,7.71,24.93,7.76,39.32c0.05,16.91,0.04,34.17,0.03,50.86c0,7.15-0.01,22.53-0.01,22.53H44.18l0-20.44
		c-0.01-13.45-0.01-26.9,0.02-40.35c0.01-3.69-0.63-5.98-3.91-6.78c-0.48-0.12-0.96-0.18-1.41-0.18c-2.96,0-4.81,2.57-4.83,6.7
		c-0.05,11.86-0.04,23.92-0.04,35.59c0,4.64,0,25.7,0,25.7H23.18z"/>
	<path class="st1" d="M28.56,2c0.98,0,1.96,0,2.94,0c6.35,0.02,8.41,2.27,7.34,8.51c-4,23.45-1.01,46.06,8.32,67.81
		c5.36,12.49,7.64,25.48,7.68,38.93c0.07,24,0.02,47.99,0.02,72.39c-3.15,0-6.04,0-9.68,0c0-1.73,0-3.5,0-5.26
		c0-18.17-0.03-36.35,0.02-54.52c0.01-3.61-0.6-6.76-4.67-7.75c-0.57-0.14-1.12-0.21-1.64-0.21c-3.45,0-5.81,2.93-5.83,7.69
		c-0.07,16.51-0.03,33.01-0.03,49.52c0,3.46,0,6.92,0,10.77c-3.4,0-5.87,0-8.9,0c-0.1-1.88-0.26-3.64-0.26-5.4
		c-0.02-17.67,0-35.35-0.03-53.02c0-1.81,0.34-4.16-0.62-5.32c-1.44-1.75-3.89-3.84-5.79-3.84c-0.07,0-0.14,0-0.2,0.01
		c-1.91,0.16-3.9,2.81-5.28,4.78c-0.72,1.02-0.24,2.91-0.24,4.41C11.69,149,11.7,166.5,11.7,184.01c0,1.8,0,3.59,0,5.7
		c-3.26,0-6.03,0-9.45,0c-0.07-1.6-0.22-3.34-0.22-5.08c-0.02-22.51-0.06-45.02,0.01-67.52c0.04-13.29,2.22-26.14,7.53-38.46
		C15,66.03,18.82,52.83,19.49,39.1c0.45-9.2-0.45-18.53-1.48-27.72C17.26,4.66,18.85,2.02,25.5,2C26.52,2,27.54,2,28.56,2 M28.56,0
		c-1.02,0-2.04,0-3.06,0c-3.75,0.01-6.23,0.83-7.79,2.58c-2.11,2.36-2.03,5.89-1.68,9.02c0.99,8.84,1.91,18.23,1.47,27.4
		C16.9,51.27,13.7,63.98,7.72,77.86c-5.13,11.92-7.65,24.76-7.69,39.24c-0.05,18.12-0.03,36.54-0.02,54.36l0.01,13.17
		c0,1.26,0.07,2.48,0.14,3.67c0.03,0.51,0.06,1.01,0.08,1.5l0.09,1.91h1.91h9.45h2v-2v-3.08l0-2.62l0-10.77
		c0-13.92,0-27.83,0.01-41.75c0-0.51-0.04-1.02-0.09-1.52c-0.05-0.56-0.13-1.48-0.02-1.77c2.34-3.32,3.37-3.87,3.79-3.9c0,0,0,0,0,0
		c0.85,0,2.7,1.19,4.29,3.11c0.27,0.37,0.22,1.95,0.19,2.79c-0.02,0.43-0.03,0.85-0.03,1.25c0.02,10.32,0.02,20.63,0.02,30.95
		c0,7.36,0,14.71,0.01,22.07c0,1.26,0.08,2.47,0.16,3.75c0.04,0.58,0.07,1.16,0.1,1.76l0.1,1.9h1.9h8.9h2v-2l0-3.56l0-7.21
		c0-4.62,0-9.25-0.01-13.87c-0.01-11.68-0.02-23.76,0.03-35.63c0.01-2.76,1.02-5.7,3.83-5.7c0.37,0,0.76,0.05,1.17,0.15
		c2.39,0.58,3.16,1.99,3.15,5.8c-0.03,13.46-0.03,27.14-0.02,40.37c0,4.72,0,9.43,0,14.15v3.53v1.73v2h2h9.68h2v-2
		c0-7.22,0-14.4,0.01-21.56c0.01-16.68,0.02-33.93-0.03-50.83C56.8,102.71,54.23,89.72,49,77.53c-9.29-21.65-12.04-44.09-8.19-66.68
		c0.4-2.36,0.71-5.78-1.28-8.15C37.52,0.3,33.99,0.01,31.51,0C30.53,0,29.54,0,28.56,0L28.56,0z"/>
</g>
</svg>
