<?xml version="1.0" encoding="UTF-8" standalone="no" ?>
<!DOCTYPE svg PUBLIC "-//W3C//DTD SVG 1.1//EN" "http://www.w3.org/Graphics/SVG/1.1/DTD/svg11.dtd">
<svg xmlns="http://www.w3.org/2000/svg" xmlns:xlink="http://www.w3.org/1999/xlink" version="1.1" width="1280" height="1024" viewBox="0 0 1280 1024" xml:space="preserve">
<desc>Created with Fabric.js 5.3.0</desc>
<defs>
</defs>
<g transform="matrix(1 0 0 1 640 512)" id="background-logo"  >
<rect style="stroke: none; stroke-width: 0; stroke-dasharray: none; stroke-linecap: butt; stroke-dashoffset: 0; stroke-linejoin: miter; stroke-miterlimit: 4; fill: rgb(255,255,255); fill-opacity: 0; fill-rule: nonzero; opacity: 1;"  paint-order="stroke"  x="-640" y="-512" rx="0" ry="0" width="1280" height="1024" />
</g>
<g transform="matrix(1.9211538461538462 0 0 1.9211538461538462 640 350.0291038595771)" id="logo-logo"  >
<g style=""  paint-order="stroke"   >
		<g transform="matrix(1.1026989678696655 0 0 -1.1026989678696655 0.00035930138983530924 81.50456070142806)"  >
<path style="stroke: none; stroke-width: 1; stroke-dasharray: none; stroke-linecap: butt; stroke-dashoffset: 0; stroke-linejoin: miter; stroke-miterlimit: 4; fill: rgb(87,28,51); fill-rule: nonzero; opacity: 1;"  paint-order="stroke"  transform=" translate(7.881500000000003, -16.6715)" d="M 0 0 L 0 60.34 L -7.882 60.34 L -15.764 60.34 L -15.764 -0.196 C -15.764 -8.227 -22.273 -14.737 -30.304 -14.737 L -46.238 -14.737 L -46.238 -26.997 L -15.764 -26.997 L 0 -26.997 L 30.475 -26.997 L 30.475 -14.737 L 14.737 -14.737 C 6.598 -14.737 0 -8.139 0 0" stroke-linecap="round" />
</g>
		<g transform="matrix(1.1026989678696655 0 0 -1.1026989678696655 0 -48.152879068726065)"  >
<path style="stroke: none; stroke-width: 1; stroke-dasharray: none; stroke-linecap: butt; stroke-dashoffset: 0; stroke-linejoin: miter; stroke-miterlimit: 4; fill: rgb(87,28,51); fill-rule: nonzero; opacity: 1;"  paint-order="stroke"  transform=" translate(60.01162583814832, -1.980000000000004)" d="M 0 0 L -22.349 75.894 L -60.012 75.894 L -97.675 75.894 L -120.024 0 C -123.301 -11.13 -123.322 -23.097 -119.316 -33.986 C -106.973 -67.53299999999999 -68.10900000000001 -71.934 -68.10900000000001 -71.934 L -68.05300000000001 -71.934 L -64.03200000000001 -25.582 L -68.781 -22.895 C -71.38000000000001 -21.424 -73.54 -19.287 -75.037 -16.701999999999998 C -76.71100000000001 -13.813999999999998 -77.485 -10.491999999999997 -77.26100000000001 -7.160999999999998 L -76.58600000000001 2.8750000000000018 C -76.53500000000001 3.6340000000000017 -76.43200000000002 4.389000000000002 -76.278 5.134000000000002 L -71.185 29.853 L -68.808 29.853 L -69.552 -3.2179999999999964 C -69.58900000000001 -4.833999999999996 -68.289 -6.163999999999996 -66.67200000000001 -6.163999999999996 C -65.15800000000002 -6.163999999999996 -63.90100000000001 -4.989999999999997 -63.79800000000001 -3.478999999999996 L -61.476000000000006 30.636000000000006 L -60.01200000000001 30.636000000000006 L -58.547000000000004 30.636000000000006 L -56.225 -3.4789999999999957 C -56.122 -4.989999999999996 -54.866 -6.163999999999996 -53.351 -6.163999999999996 C -51.734 -6.163999999999996 -50.435 -4.833999999999996 -50.471 -3.217999999999996 L -51.214999999999996 29.853 L -48.837999999999994 29.853 L -43.74499999999999 5.134 C -43.59099999999999 4.389 -43.48899999999999 3.6340000000000003 -43.43799999999999 2.8750000000000004 L -42.761999999999986 -7.161 C -42.53799999999999 -10.491999999999999 -43.31199999999998 -13.814 -44.98599999999999 -16.701999999999998 C -46.48299999999999 -19.287 -48.64299999999999 -21.424 -51.24299999999999 -22.894999999999996 L -55.990999999999985 -25.581999999999997 L -51.97099999999999 -71.934 L -51.91399999999999 -71.934 C -51.91399999999999 -71.934 -13.050999999999988 -67.533 -0.7079999999999842 -33.986 C 3.299 -23.097 3.278 -11.13 0 0" stroke-linecap="round" />
</g>
</g>
</g>
<g transform="matrix(1.9211538461538462 0 0 1.9211538461538462 647.8250595027216 728.9152465590837)" id="text-logo"  >
<g style=""  paint-order="stroke"   >
		<g transform="matrix(1 0 0 1 0 0)" id="text-logo-path-0"  >
<path style="stroke: none; stroke-width: 0; stroke-dasharray: none; stroke-linecap: butt; stroke-dashoffset: 0; stroke-linejoin: miter; stroke-miterlimit: 4; fill: rgb(189,144,40); fill-rule: nonzero; opacity: 1;"  paint-order="stroke"  transform=" translate(-225.79, 28.129999999999995)" d="M 27.94 2.4 C 37.25 2.4 44.74 -2.5 49.15 -11.33 L 34.08 -27.74 L 33.22 -26.21 C 38.4 -15.84 31.97 -7.49 27.17 -7.49 C 19.01 -7.49 14.98 -18.05 14.98 -34.08 C 14.98 -50.5 20.16 -60.58 27.94 -60.58 C 33.5 -60.58 37.82 -54.14 33.89 -45.79 L 34.46 -44.64 L 48.38 -55.39 C 43.97 -64.51 37.82 -70.46 27.94 -70.46 C 12.38 -70.46 1.82 -56.64 1.82 -34.08 C 1.82 -12.1 11.62 2.4 27.94 2.4 Z M 72.77 2.02 C 86.02 2.02 94.85 -9.6 94.85 -28.99 C 94.85 -47.52 86.5 -59.9 72.77 -59.9 C 59.52 -59.9 50.59 -48.19 50.59 -28.99 C 50.59 -10.27 58.94 2.02 72.77 2.02 Z M 61.73 -28.99 C 61.73 -42.91 66.14 -51.46 72.77 -51.46 C 79.58 -51.46 83.62 -42.43 83.62 -28.99 C 83.62 -14.88 79.3 -6.34 72.77 -6.34 C 65.86 -6.34 61.73 -15.36 61.73 -28.99 Z M 95.42 -0.29 L 95.42 0.77 L 111.94 0.77 L 111.94 -24.19 L 116.16 -24.19 C 116.93 -24.19 117.79 -24.19 118.46 -24.29 C 122.4 -16.03 125.76 -7.87 127.78 0.19 C 135.46 2.98 141.98 7.1 148.13 11.62 L 148.7 10.56 C 142.66 5.95 138.05 -2.02 133.92 -10.66 L 126.62 -26.11 C 132.67 -28.8 136.32 -34.37 136.32 -42.72 C 136.32 -50.3 130.66 -59.23 119.71 -59.23 L 110.4 -59.23 L 110.4 -59.14 L 95.9 -59.04 L 95.9 -58.46 C 98.98 -56.93 101.47 -55.2 101.47 -51.65 L 101.47 -5.86 C 101.47 -2.78 98.78 -0.96 95.42 -0.29 Z M 111.94 -32.45 L 111.94 -50.98 L 118.66 -50.98 C 124.22 -50.98 126.72 -46.66 126.72 -42.14 C 126.72 -35.42 122.69 -32.45 116.83 -32.45 Z M 188.93 9.5 L 189.7 8.06 C 185.66 5.09 181.63 1.25 178.85 -4.22 L 163.3 -34.75 L 173.38 -50.98 C 175.78 -54.72 179.04 -56.93 182.78 -58.08 L 182.78 -59.04 L 166.94 -59.04 L 155.33 -39.17 L 155.33 -59.14 L 139.3 -59.04 L 139.3 -58.46 C 142.27 -56.93 144.86 -55.2 144.86 -51.65 L 144.86 -5.86 C 144.86 -2.78 142.18 -0.96 138.72 -0.29 L 138.72 0.77 L 155.33 0.77 L 155.33 -23.23 L 156.96 -25.63 L 163.49 -12.77 C 166.66 -7.39 168.29 -2.78 168.67 1.25 C 173.57 1.92 180.77 5.18 188.93 9.5 Z M 202.18 17.95 L 203.52 19.2 C 206.98 11.71 213.89 4.42 218.21 0.86 C 216.77 -1.82 216.77 -4.7 216.77 -11.14 L 216.77 -39.26 L 237.12 0.86 L 246.43 0.86 L 246.43 -60.29 C 246.43 -63.65 248.64 -66.72 253.44 -69.7 L 252.86 -70.75 C 247.78 -69.89 242.11 -69.5 234.53 -69.5 L 234.53 -30.82 L 214.94 -69.6 L 197.95 -69.5 L 197.95 -68.74 C 201.5 -67.01 204.48 -64.99 204.48 -60.77 L 204.48 0.67 C 204.48 7.49 203.71 12.77 202.18 17.95 Z M 268.7 0.86 L 290.78 0.86 L 290.78 -31.39 L 303.07 -31.39 L 307.87 -46.94 L 306.62 -46.85 C 304.99 -43.49 301.92 -40.8 299.33 -40.8 L 290.78 -40.8 L 290.78 -60.19 L 298.85 -60.19 C 303.46 -60.19 307.68 -59.81 310.94 -59.04 L 320.26 -74.78 L 318.62 -75.46 C 313.63 -71.71 308.54 -69.5 296.93 -69.5 L 269.18 -69.5 C 275.42 -66.91 279.36 -63.26 279.17 -57.89 L 279.17 -10.08 C 279.17 -5.57 273.79 0 268.7 0.86 Z M 332.83 2.02 C 346.08 2.02 354.91 -9.6 354.91 -28.99 C 354.91 -47.52 346.56 -59.9 332.83 -59.9 C 319.58 -59.9 310.66 -48.19 310.66 -28.99 C 310.66 -10.27 319.01 2.02 332.83 2.02 Z M 321.79 -28.99 C 321.79 -42.91 326.21 -51.46 332.83 -51.46 C 339.65 -51.46 343.68 -42.43 343.68 -28.99 C 343.68 -14.88 339.36 -6.34 332.83 -6.34 C 325.92 -6.34 321.79 -15.36 321.79 -28.99 Z M 355.49 -0.29 L 355.49 0.77 L 372 0.77 L 372 -24.19 L 376.22 -24.19 C 376.99 -24.19 377.86 -24.19 378.53 -24.29 C 382.46 -16.03 385.82 -7.87 387.84 0.19 C 395.52 2.98 402.05 7.1 408.19 11.62 L 408.77 10.56 C 402.72 5.95 398.11 -2.02 393.98 -10.66 L 386.69 -26.11 C 392.74 -28.8 396.38 -34.37 396.38 -42.72 C 396.38 -50.3 390.72 -59.23 379.78 -59.23 L 370.46 -59.23 L 370.46 -59.14 L 355.97 -59.04 L 355.97 -58.46 C 359.04 -56.93 361.54 -55.2 361.54 -51.65 L 361.54 -5.86 C 361.54 -2.78 358.85 -0.96 355.49 -0.29 Z M 372 -32.45 L 372 -50.98 L 378.72 -50.98 C 384.29 -50.98 386.78 -46.66 386.78 -42.14 C 386.78 -35.42 382.75 -32.45 376.9 -32.45 Z M 448.99 9.5 L 449.76 8.06 C 445.73 5.09 441.7 1.25 438.91 -4.22 L 423.36 -34.75 L 433.44 -50.98 C 435.84 -54.72 439.1 -56.93 442.85 -58.08 L 442.85 -59.04 L 427.01 -59.04 L 415.39 -39.17 L 415.39 -59.14 L 399.36 -59.04 L 399.36 -58.46 C 402.34 -56.93 404.93 -55.2 404.93 -51.65 L 404.93 -5.86 C 404.93 -2.78 402.24 -0.96 398.78 -0.29 L 398.78 0.77 L 415.39 0.77 L 415.39 -23.23 L 417.02 -25.63 L 423.55 -12.77 C 426.72 -7.39 428.35 -2.78 428.74 1.25 C 433.63 1.92 440.83 5.18 448.99 9.5 Z" stroke-linecap="round" />
</g>
</g>
</g>
</svg>