<?xml version="1.0" encoding="utf-8"?>
<!-- Generator: Adobe Illustrator 28.0.0, SVG Export Plug-In . SVG Version: 6.00 Build 0)  -->
<svg version="1.1" id="Layer_1" xmlns="http://www.w3.org/2000/svg" xmlns:xlink="http://www.w3.org/1999/xlink" x="0px" y="0px"
	 viewBox="0 0 2786 3419" style="enable-background:new 0 0 2786 3419;" xml:space="preserve">
<style type="text/css">
	.st0{fill:#A9D25A;}
</style>
<path d="M1716,0c5.74,1.36,11.48,2.76,17.23,4.08c43.22,9.89,77.92,33.23,106.7,67.4c-118.62,203.58-222.02,414.85-320.41,628.87
	c1.72,1.11,2.75,1.97,3.93,2.5c55.37,24.94,102.83,61.24,146.92,102.34c43.96,40.97,84.13,85.52,122.18,131.91
	c87.93,107.22,181.61,209.39,273.15,313.45c113.99,129.58,228.13,259.03,341.17,389.44c69.43,80.1,134.14,163.96,192.11,252.87
	c63.9,97.99,113.86,202.37,145.95,315.06c18.28,64.19,31.24,129.38,37.4,195.87c0.89,9.61,1.13,19.27,1.88,28.89
	c0.33,4.22,1.17,8.41,1.78,12.61c0,40.65,0,81.31,0,121.96c-0.6,3.56-1.5,7.1-1.74,10.68c-0.47,6.97,0.01,14.05-0.94,20.94
	c-4.27,30.97-7.82,62.1-13.63,92.8c-14.37,75.94-38.46,148.83-74.15,217.48c-52.17,100.34-118.77,190.21-200.02,268.96
	c-89.96,87.18-193.31,153.1-312.13,193.97c-69.62,23.95-141.23,38.14-214.68,43.21c-13.59,0.94-27.15,2.46-40.72,3.72
	c-18,0-36,0-54,0c-3.61-0.51-7.21-1.2-10.83-1.5c-25.54-2.12-51.14-3.72-76.63-6.32c-65.08-6.62-128.85-19.77-191.23-39.52
	c-45.12-14.29-89.29-30.85-130.23-55.07c-7.14-4.22-14.81-7.56-22.27-11.22c-20.68-10.12-41.66-11.03-62.55-1.05
	c-18.59,8.89-36.84,18.49-55.33,27.61c-14.3,7.06-28.36,14.82-43.19,20.58c-32.58,12.65-66.18,22.25-100.14,30.53
	c-69.68,17-140.3,27.86-211.89,32.45c-11.93,0.76-23.81,2.31-35.71,3.5c-27.33,0-54.67,0-82,0c-4.27-0.6-8.51-1.47-12.8-1.77
	c-43.58-3.02-86.87-8-129.62-17.34c-98.63-21.55-188.84-62.23-271.4-119.9c-99.13-69.25-184.5-153.11-258.9-248.09
	C73.62,2897,13.85,2744.26,3.42,2572.74c-0.44-7.2-2.25-14.33-3.42-21.49c0-26.66,0-53.32,0-79.98c1.18-7.85,2.99-15.66,3.45-23.55
	c8.95-153.1,52.51-296.28,123.43-431.66c46.69-89.12,103.22-171.79,164.78-251.15c59.26-76.39,122.41-149.54,186.26-222.07
	c178.77-203.09,357.93-405.84,536.86-608.79c44.73-50.74,89.16-101.74,133.72-152.63c2.41-2.75,4.76-5.54,7.3-8.5
	c-0.83-1.29-1.37-2.51-2.23-3.43c-56.38-60.73-98.57-130.62-132.46-205.77c-28.61-63.42-49.39-129.33-60.27-198.13
	c-12.96-81.95-11.61-163.27,13.2-243.19c4.43-14.28,10.14-28.16,15.42-42.17c1.75-4.64,3.99-9.1,6.5-14.76
	c8.27,1.16,16.43,2.05,24.49,3.47c112.46,19.82,197.84,80.05,260.12,174.57c34.91,52.99,59.36,110.79,78.2,171.13
	c19.2,61.48,32.15,124.33,41.39,188c1.82,12.52,3.54,25.05,5.34,37.57c0.17,1.15,0.61,2.26,1.35,4.93c2.63-4.76,4.62-8.13,6.39-11.6
	c44.6-87.21,83.74-176.93,122.69-266.73c36.83-84.91,73.07-170.09,114.03-253.13c17.38-35.23,36.04-69.82,54.07-104.72
	c1.5-2.9,2.66-5.98,3.98-8.98C1710.67,0,1713.33,0,1716,0z M1198.01,796.83c-2.89,3.29-5.1,5.75-7.26,8.26
	c-47.01,54.5-93.64,109.34-141.09,163.45c-192.68,219.72-385.64,439.2-578.45,658.81c-53.2,60.6-106.03,121.52-155.48,185.28
	c-65.18,84.03-121.63,173.35-165.05,270.62c-51.71,115.82-83.3,236.54-87.93,363.71c-2.26,62.13,2.73,123.79,12.88,185.09
	c18.29,110.43,56.27,213.47,115.85,308.34c65.65,104.54,149.34,192.49,248.23,265.91c132.56,98.43,280.09,156.29,446.52,161.7
	c52.12,1.69,103.91-1.76,155.39-9.71c59.72-9.22,118.09-24.21,174.8-44.87c57.84-21.08,115.17-43.58,172.56-65.87
	c8.03-3.12,14.76-3.05,22.73,0.08c53.58,21.09,107.07,42.43,161.09,62.35c84.11,31.02,170.48,52.29,260.4,57.71
	c87.88,5.29,174.46-2.17,259.34-25.69c161.51-44.75,300.06-128.76,415.41-249.61c142.72-149.52,219.72-328.99,235.66-534.77
	c3.74-48.23,2.93-96.51-1.11-144.76c-4.37-52.22-12.78-103.72-25.56-154.52c-24.9-98.96-65.68-191.21-117.81-278.66
	c-48.58-81.5-104.94-157.48-166.09-229.81c-57.43-67.94-116.24-134.72-174.69-201.79c-97-111.28-194.06-222.5-291.36-333.51
	c-57.98-66.16-116.58-131.75-172.77-199.48c-34.24-41.26-69.94-81.37-106.17-120.9c-34.26-37.39-71.5-71.76-113.25-100.89
	c-20.82-14.53-42.69-27.12-66.51-36.22c-5.46-2.09-9.3-1.48-13.37,2.67c-12.31,12.55-21.86,26.84-27.84,43.38
	c-3.64,10.07-2.35,19.7,3.95,28.46c2.53,3.51,5.35,6.81,7.97,10.26c10.08,13.29,9.58,23.53-1.92,36.72
	c-10.05-2.95-20.07-6.67-30.42-8.77c-37.84-7.68-75.85-14.53-113.69-22.23C1285.6,837.93,1238.19,828.21,1198.01,796.83z
	 M1109.14,279.36c15.83,12.49,28.57,26.47,40.08,41.61c19.87,26.13,35.6,54.72,48.82,84.63c30.3,68.55,57.47,138.33,79.87,209.88
	c6.95,22.21,13.58,44.58,18.97,67.2c3.61,15.16,4.53,30.95,7.12,46.37c2.6,15.49,6.58,30.62,15.44,43.96
	c9,13.58,21.53,21.15,38.75,22.74c0.3-12.56,0.95-24.49,0.81-36.41c-0.52-45.64-1.92-91.22-6.53-136.69
	c-5.25-51.76-13.43-102.98-26.52-153.35c-15.98-61.56-38.53-120.45-72.12-174.74c-52.97-85.61-126.07-146.14-222.23-177.83
	c-3.41-1.12-6.88-2.04-10.19-3.01c-1.57,10.24-2.34,19.83-4.56,29.06c-17.98,74.62-19.53,149.64-5.98,225.06
	c12.35,68.7,36.15,133.48,67.43,195.69c30.79,61.25,68.96,117.8,109.83,172.6c7.72,10.35,16.95,19.68,26.24,28.71
	c8.92,8.68,19.69,14.86,31.96,17.78c7.32,1.74,14.8,3.37,22.77,0.27c-1.4-8.21-2.63-16.09-4.11-23.92
	c-13.17-69.64-35.01-136.66-61.83-202.09c-26.91-65.63-55.55-130.49-88.46-193.39c-6.96-13.3-13.15-26.96-15.71-41.92
	C1096.41,306.52,1098.38,292.46,1109.14,279.36z M1417.57,798.16c0.62,0.09,1.23,0.17,1.85,0.26c2.14-4.4,4.33-8.79,6.41-13.22
	c52.73-112.38,104.98-224.99,158.31-337.08c59.23-124.48,122.11-247.07,192.94-365.45c0.8-1.33,1.36-2.81,1.66-3.43
	c-10.21-6.22-19.74-12.09-29.35-17.86c-6.82-4.1-13.75-7.97-22.43-7c-1.74,3.92-3.37,7.53-4.95,11.16
	c-52.08,119.24-103.54,238.76-156.45,357.63c-37.07,83.3-74.97,166.26-118.13,246.7c-7.84,14.62-14.41,30.01-20.46,45.48
	c-9.09,23.2-13.3,47.38-11,72.41C1416.29,791.25,1417.03,794.7,1417.57,798.16z"/>
<path class="st0" d="M1198.01,796.83c40.18,31.38,87.6,41.11,134.95,50.75c37.84,7.7,75.84,14.55,113.69,22.23
	c10.35,2.1,20.36,5.83,30.42,8.77c11.5-13.19,12-23.44,1.92-36.72c-2.62-3.45-5.44-6.75-7.97-10.26c-6.3-8.76-7.59-18.39-3.95-28.46
	c5.98-16.54,15.53-30.82,27.84-43.38c4.07-4.15,7.91-4.76,13.37-2.67c23.82,9.1,45.69,21.69,66.51,36.22
	c41.75,29.13,78.98,63.5,113.25,100.89c36.23,39.54,71.93,79.64,106.17,120.9c56.19,67.73,114.79,133.32,172.77,199.48
	c97.3,111.02,194.37,222.23,291.36,333.51c58.46,67.07,117.26,133.85,174.69,201.79c61.15,72.34,117.51,148.31,166.09,229.81
	c52.13,87.46,92.91,179.71,117.81,278.66c12.78,50.8,21.19,102.3,25.56,154.52c4.04,48.25,4.85,96.52,1.11,144.76
	c-15.94,205.78-92.94,385.25-235.66,534.77c-115.36,120.85-253.9,204.86-415.41,249.61c-84.88,23.52-171.46,30.98-259.34,25.69
	c-89.92-5.42-176.29-26.69-260.4-57.71c-54.02-19.92-107.51-41.26-161.09-62.35c-7.97-3.14-14.7-3.2-22.73-0.08
	c-57.39,22.29-114.72,44.79-172.56,65.87c-56.72,20.67-115.08,35.66-174.8,44.87c-51.48,7.95-103.27,11.4-155.39,9.71
	c-166.43-5.41-313.96-63.27-446.52-161.7c-98.88-73.42-182.58-161.37-248.23-265.91c-59.58-94.87-97.56-197.92-115.85-308.34
	c-10.15-61.3-15.14-122.96-12.88-185.09c4.63-127.18,36.22-247.89,87.93-363.71c43.43-97.27,99.87-186.59,165.05-270.62
	c49.46-63.76,102.28-124.68,155.48-185.28c192.81-219.61,385.77-439.09,578.45-658.81c47.45-54.11,94.08-108.95,141.09-163.45
	C1192.91,802.58,1195.11,800.11,1198.01,796.83z M1957.22,1959.43c-12.65,0.87-34.96,1.88-57.15,4.02
	c-44.93,4.33-88.58,14.28-130.95,30.15c-50.13,18.77-89.05,51.32-119.14,94.93c-5.82,8.43-10.62,17.71-14.76,27.09
	c-2.34,5.29-2.95,11.56-3.31,17.46c-0.5,8.04,3.52,14.38,10.57,17.9c17.17,8.56,29.8,7.96,42.06-4.38
	c5.15-5.18,9.93-10.78,14.53-16.46c5.66-6.99,11.1-14.16,16.37-21.44c19.19-26.49,44.71-44.18,75.21-55.46
	c33.29-12.31,67.62-19.82,102.73-24.31c59.24-7.57,118.27-7.07,177,4.43c32.2,6.3,63.07,16.35,91.55,33.11
	c15.25,8.98,27.68,20.64,36.8,35.84c3.42,5.71,7.12,11.26,10.83,16.78c11.37,16.94,27.41,27.75,46.04,35.33
	c4.9,1.99,7.92,0.84,11.19-2.96c14.57-16.94,18.29-35.81,10.47-56.75c-5.82-15.59-15.8-28.47-27.27-40.24
	c-30.08-30.83-65.86-52.67-106.36-67.03C2086.43,1967.17,2027.17,1960.17,1957.22,1959.43z M795.64,1959.39
	c-14.79,1.24-42.71,2.93-70.47,6.08c-39.16,4.45-77.1,14.21-114.12,27.93c-50.9,18.86-90.21,51.96-120.47,96.3
	c-6.12,8.97-10.8,19.09-15,29.15c-2.08,4.98-2.1,11.04-2.06,16.61c0.04,6.39,3.46,11.61,8.99,14.71c14.47,8.11,29.6,9.97,42.26-2.51
	c4.5-4.43,8.84-9.07,12.82-13.96c5.88-7.23,11.63-14.6,17-22.21c20.09-28.47,46.94-47.73,79.69-59.06
	c6.91-2.39,13.77-5.01,20.8-7.01c82.03-23.41,165.19-27.7,249.21-13.55c32.63,5.5,64,15.3,93.3,31.25
	c18.61,10.13,33.76,23.55,44.34,42.02c2.48,4.33,5.3,8.46,8.05,12.63c11.43,17.28,27.39,28.69,46.43,36.38
	c5.27,2.13,8.46,1.23,12.03-2.99c13.91-16.41,17.64-34.69,10.69-55c-4.71-13.78-12.95-25.5-22.67-36.15
	c-32.41-35.52-72.2-59.44-117.54-74.69C923.71,1966.76,866.72,1960.23,795.64,1959.39z M1175.49,2251.71
	c0.91-2.1,1.43-3.26,1.92-4.43c5.72-13.81,4.45-27.41-1.81-40.6c-4.09-8.62-7.33-10.34-15.72-6.4c-8.63,4.05-17.65,8.6-24.37,15.13
	c-27.44,26.63-40.88,59.42-39.36,97.87c0.41,10.47,3.63,20.24,9.47,29.1c2.23,3.39,5.03,4.87,9.12,4.88c9.15,0,16.03-3.9,20.95-11.4
	c3.28-5.01,6.03-10.4,9.58-15.2c6.84-9.24,13.57-10.91,24.3-6.71c3.1,1.21,6.2,2.43,9.33,3.55c55.51,19.67,113.15,27.67,171.6,29.52
	c33.24,1.05,66.62-0.06,99.86-1.79c38.99-2.02,77.51-8.22,114.98-19.49c18.37-5.52,36.29-12.54,55.16-19.14
	c3.07,6.22,6.28,13.1,9.82,19.81c4.13,7.83,9.62,14.4,18.15,17.81c10.65,4.26,15.58,2.98,22.18-6.41
	c8.71-12.42,10.39-26.52,8.54-41.09c-3.54-27.87-15.01-52.29-33.14-73.63c-7.4-8.71-16-16.04-26.34-21.1
	c-11.41-5.59-17.65-3.78-23.64,7.53c-2.12,4.01-3.73,8.74-3.95,13.21c-0.35,7.25,0.45,14.59,1.14,21.85c0.4,4.2,1.54,8.33,2.3,12.25
	c-1.48,0.94-2.25,1.66-3.17,1.97c-6.61,2.25-13.21,4.58-19.9,6.6c-49.39,14.9-99.99,22.18-151.43,24.72
	c-59.58,2.95-118.51-1.28-176.65-14.82C1221.04,2269.82,1198.25,2262.57,1175.49,2251.71z"/>
<path class="st0" d="M1109.14,279.36c-10.75,13.1-12.73,27.16-10.16,42.21c2.55,14.96,8.75,28.62,15.71,41.92
	c32.91,62.9,61.56,127.76,88.46,193.39c26.82,65.43,48.66,132.45,61.83,202.09c1.48,7.83,2.71,15.71,4.11,23.92
	c-7.97,3.1-15.45,1.47-22.77-0.27c-12.27-2.92-23.04-9.1-31.96-17.78c-9.28-9.03-18.52-18.36-26.24-28.71
	c-40.87-54.8-79.04-111.35-109.83-172.6c-31.28-62.21-55.08-126.99-67.43-195.69c-13.55-75.41-12-150.44,5.98-225.06
	c2.23-9.23,2.99-18.82,4.56-29.06c3.3,0.97,6.78,1.88,10.19,3.01c96.16,31.69,169.26,92.22,222.23,177.83
	c33.6,54.29,56.14,113.18,72.12,174.74c13.08,50.38,21.27,101.59,26.52,153.35c4.61,45.47,6,91.05,6.53,136.69
	c0.14,11.92-0.51,23.86-0.81,36.41c-17.22-1.59-29.74-9.16-38.75-22.74c-8.85-13.35-12.83-28.47-15.44-43.96
	c-2.59-15.43-3.51-31.21-7.12-46.37c-5.39-22.62-12.02-44.99-18.97-67.2c-22.4-71.56-49.57-141.33-79.87-209.88
	c-13.22-29.91-28.96-58.5-48.82-84.63C1137.71,305.82,1124.97,291.85,1109.14,279.36z"/>
<path class="st0" d="M1417.57,798.16c-0.54-3.46-1.28-6.91-1.6-10.4c-2.3-25.03,1.91-49.21,11-72.41
	c6.06-15.46,12.62-30.86,20.46-45.48c43.16-80.43,81.06-163.4,118.13-246.7c52.91-118.87,104.37-238.39,156.45-357.63
	c1.59-3.63,3.21-7.25,4.95-11.16c8.67-0.97,15.61,2.9,22.43,7c9.6,5.77,19.14,11.64,29.35,17.86c-0.3,0.62-0.86,2.09-1.66,3.43
	c-70.83,118.38-133.72,240.97-192.94,365.45c-53.33,112.09-105.58,224.7-158.31,337.08c-2.08,4.43-4.27,8.81-6.41,13.22
	C1418.81,798.33,1418.19,798.25,1417.57,798.16z"/>
<path d="M1957.22,1959.43c69.95,0.74,129.21,7.74,186.4,28.01c40.5,14.35,76.28,36.2,106.36,67.03
	c11.47,11.76,21.46,24.65,27.27,40.24c7.82,20.94,4.11,39.81-10.47,56.75c-3.26,3.79-6.29,4.95-11.19,2.96
	c-18.63-7.58-34.67-18.39-46.04-35.33c-3.71-5.53-7.41-11.08-10.83-16.78c-9.12-15.21-21.55-26.86-36.8-35.84
	c-28.47-16.77-59.34-26.81-91.55-33.11c-58.73-11.49-117.76-12-177-4.43c-35.11,4.49-69.45,12-102.73,24.31
	c-30.5,11.28-56.02,28.97-75.21,55.46c-5.27,7.28-10.72,14.45-16.37,21.44c-4.6,5.69-9.38,11.28-14.53,16.46
	c-12.26,12.34-24.89,12.94-42.06,4.38c-7.05-3.51-11.08-9.86-10.57-17.9c0.37-5.89,0.98-12.16,3.31-17.46
	c4.14-9.38,8.95-18.66,14.76-27.09c30.09-43.61,69.01-76.17,119.14-94.93c42.37-15.86,86.02-25.81,130.95-30.15
	C1922.26,1961.31,1944.56,1960.3,1957.22,1959.43z"/>
<path d="M795.64,1959.39c71.09,0.84,128.08,7.37,183.28,25.94c45.34,15.25,85.14,39.17,117.54,74.69
	c9.72,10.65,17.95,22.36,22.67,36.15c6.95,20.32,3.22,38.59-10.69,55c-3.57,4.21-6.76,5.11-12.03,2.99
	c-19.04-7.69-35-19.1-46.43-36.38c-2.75-4.16-5.58-8.3-8.05-12.63c-10.58-18.47-25.73-31.89-44.34-42.02
	c-29.3-15.96-60.67-25.76-93.3-31.25c-84.02-14.15-167.18-9.86-249.21,13.55c-7.03,2.01-13.88,4.62-20.8,7.01
	c-32.75,11.34-59.61,30.59-79.69,59.06c-5.37,7.61-11.12,14.98-17,22.21c-3.98,4.89-8.32,9.53-12.82,13.96
	c-12.66,12.47-27.79,10.62-42.26,2.51c-5.53-3.1-8.95-8.32-8.99-14.71c-0.04-5.57-0.02-11.63,2.06-16.61
	c4.2-10.07,8.88-20.18,15-29.15c30.26-44.33,69.58-77.44,120.47-96.3c37.02-13.72,74.96-23.48,114.12-27.93
	C752.92,1962.32,780.85,1960.63,795.64,1959.39z"/>
<path d="M1175.49,2251.71c22.76,10.87,45.55,18.12,68.9,23.55c58.14,13.54,117.08,17.76,176.65,14.82
	c51.43-2.54,102.04-9.82,151.43-24.72c6.69-2.02,13.28-4.35,19.9-6.6c0.92-0.31,1.69-1.04,3.17-1.97c-0.76-3.92-1.9-8.05-2.3-12.25
	c-0.69-7.26-1.49-14.6-1.14-21.85c0.22-4.48,1.82-9.2,3.95-13.21c5.99-11.31,12.23-13.11,23.64-7.53
	c10.34,5.06,18.94,12.39,26.34,21.1c18.13,21.34,29.61,45.76,33.14,73.63c1.85,14.58,0.18,28.67-8.54,41.09
	c-6.59,9.39-11.52,10.67-22.18,6.41c-8.53-3.41-14.03-9.98-18.15-17.81c-3.54-6.71-6.75-13.59-9.82-19.81
	c-18.86,6.6-36.79,13.62-55.16,19.14c-37.47,11.27-75.99,17.46-114.98,19.49c-33.24,1.73-66.62,2.84-99.86,1.79
	c-58.45-1.85-116.1-9.85-171.6-29.52c-3.14-1.11-6.23-2.34-9.33-3.55c-10.73-4.19-17.46-2.53-24.3,6.71
	c-3.55,4.8-6.3,10.19-9.58,15.2c-4.92,7.51-11.8,11.41-20.95,11.4c-4.1,0-6.89-1.49-9.12-4.88c-5.84-8.86-9.06-18.63-9.47-29.1
	c-1.52-38.45,11.92-71.24,39.36-97.87c6.72-6.52,15.74-11.08,24.37-15.13c8.4-3.94,11.64-2.22,15.72,6.4
	c6.26,13.19,7.53,26.79,1.81,40.6C1176.92,2248.45,1176.4,2249.6,1175.49,2251.71z"/>
</svg>
